<svg width="27" height="27" viewBox="0 0 27 27" fill="none" xmlns="http://www.w3.org/2000/svg">
<g clip-path="url(#clip0_28_127)">
<path d="M13.6464 0.871582C6.68933 0.871582 1.05261 6.5083 1.05261 13.4653C1.05261 20.4224 6.68933 26.0591 13.6464 26.0591C20.6034 26.0591 26.2401 20.4224 26.2401 13.4653C26.2401 6.5083 20.6034 0.871582 13.6464 0.871582ZM16.546 18.6501L12.0671 15.395C11.9096 15.2782 11.8182 15.0954 11.8182 14.9024V6.35596C11.8182 6.0208 12.0925 5.74658 12.4276 5.74658H14.8651C15.2003 5.74658 15.4745 6.0208 15.4745 6.35596V13.3485L18.6991 15.6946C18.9733 15.8927 19.0292 16.2735 18.8311 16.5478L17.3991 18.5181C17.201 18.7872 16.8202 18.8481 16.546 18.6501Z" fill="#6E9BB8"/>
</g>
<defs>
<clipPath id="clip0_28_127">
<rect width="26" height="26" fill="white" transform="translate(0.646362 0.464111)"/>
</clipPath>
</defs>
</svg>
