<svg width="26" height="26" viewBox="0 0 26 26" fill="none" xmlns="http://www.w3.org/2000/svg">
<path d="M25.8429 12.3409C23.395 7.56474 18.5489 4.33325 13 4.33325C7.45105 4.33325 2.60359 7.567 0.157059 12.3413C0.0537998 12.5456 0 12.7713 0 13.0001C0 13.229 0.0537998 13.4547 0.157059 13.6589C2.60494 18.4351 7.45105 21.6666 13 21.6666C18.5489 21.6666 23.3964 18.4328 25.8429 13.6585C25.9461 13.4542 25.9999 13.2286 25.9999 12.9997C25.9999 12.7708 25.9461 12.5451 25.8429 12.3409ZM13 19.4999C11.7144 19.4999 10.4577 19.1187 9.38877 18.4045C8.31985 17.6902 7.48673 16.6751 6.99476 15.4874C6.50279 14.2996 6.37407 12.9927 6.62487 11.7318C6.87567 10.471 7.49474 9.31277 8.40378 8.40372C9.31282 7.49468 10.471 6.87562 11.7319 6.62481C12.9928 6.37401 14.2997 6.50273 15.4874 6.9947C16.6751 7.48667 17.6903 8.31979 18.4045 9.38871C19.1188 10.4576 19.5 11.7143 19.5 12.9999C19.5004 13.8536 19.3325 14.699 19.006 15.4879C18.6795 16.2767 18.2008 16.9934 17.5971 17.597C16.9934 18.2007 16.2767 18.6795 15.4879 19.006C14.6991 19.3325 13.8537 19.5003 13 19.4999ZM13 8.66658C12.6132 8.67199 12.2289 8.72953 11.8575 8.83766C12.1636 9.25369 12.3106 9.76567 12.2716 10.2807C12.2326 10.7958 12.0104 11.2798 11.6451 11.6451C11.2799 12.0103 10.7958 12.2326 10.2808 12.2715C9.76572 12.3105 9.25375 12.1636 8.83772 11.8575C8.60081 12.7303 8.64358 13.6554 8.95999 14.5026C9.2764 15.3498 9.85053 16.0765 10.6016 16.5803C11.3526 17.0841 12.2427 17.3398 13.1467 17.3112C14.0506 17.2827 14.9228 16.9714 15.6405 16.4211C16.3583 15.8709 16.8854 15.1094 17.1477 14.2439C17.41 13.3784 17.3943 12.4525 17.1028 11.5964C16.8113 10.7403 16.2586 9.99712 15.5226 9.47155C14.7866 8.94599 13.9044 8.66446 13 8.66658Z" fill="#6E9BB8"/>
</svg>
