<svg width="1620" height="393" viewBox="0 0 1620 393" fill="none" xmlns="http://www.w3.org/2000/svg">
<g opacity="0.8" clip-path="url(#clip0)">
<g filter="url(#filter0_b)">
<path d="M1579 242C1579 242 1552.85 250.925 1551.26 251.632C1545.26 254.286 1540.15 258.641 1536.55 264.168C1532.96 269.695 1531.03 276.157 1531 282.768V353.326V393C1531 393 1557.09 384.075 1558.76 383.368C1564.74 380.717 1569.84 376.377 1573.43 370.871C1577.03 365.364 1578.97 358.926 1579.02 352.333V312.356L1579 242Z" fill="url(#paint0_linear)" fill-opacity="0.6"/>
<path d="M1579 242C1579 242 1552.85 250.925 1551.26 251.632C1545.26 254.286 1540.15 258.641 1536.55 264.168C1532.96 269.695 1531.03 276.157 1531 282.768V353.326V393C1531 393 1557.09 384.075 1558.76 383.368C1564.74 380.717 1569.84 376.377 1573.43 370.871C1577.03 365.364 1578.97 358.926 1579.02 352.333V312.356L1579 242Z" fill="#60AAFB" fill-opacity="0.2"/>
<path d="M1531.96 392.142L1531.5 392.3V353.326V282.77C1531.53 276.254 1533.43 269.887 1536.97 264.441C1540.52 258.994 1545.55 254.704 1551.46 252.09L1551.46 252.089C1551.84 251.923 1553.74 251.242 1556.43 250.301C1559.1 249.365 1562.52 248.183 1565.89 247.024C1569.26 245.864 1572.57 244.726 1575.05 243.879C1576.29 243.455 1577.32 243.103 1578.03 242.858L1578.5 242.699L1578.52 312.356V312.356V352.331C1578.47 358.828 1576.55 365.172 1573.01 370.598C1569.47 376.022 1564.45 380.298 1558.56 382.909C1557.73 383.259 1550.83 385.654 1544.09 387.976C1540.72 389.136 1537.41 390.274 1534.94 391.121C1533.7 391.545 1532.68 391.897 1531.96 392.142Z" stroke="url(#paint1_linear)" stroke-opacity="0.6"/>
<path d="M1531.96 392.142L1531.5 392.3V353.326V282.77C1531.53 276.254 1533.43 269.887 1536.97 264.441C1540.52 258.994 1545.55 254.704 1551.46 252.09L1551.46 252.089C1551.84 251.923 1553.74 251.242 1556.43 250.301C1559.1 249.365 1562.52 248.183 1565.89 247.024C1569.26 245.864 1572.57 244.726 1575.05 243.879C1576.29 243.455 1577.32 243.103 1578.03 242.858L1578.5 242.699L1578.52 312.356V312.356V352.331C1578.47 358.828 1576.55 365.172 1573.01 370.598C1569.47 376.022 1564.45 380.298 1558.56 382.909C1557.73 383.259 1550.83 385.654 1544.09 387.976C1540.72 389.136 1537.41 390.274 1534.94 391.121C1533.7 391.545 1532.68 391.897 1531.96 392.142Z" stroke="url(#paint2_linear)"/>
</g>
</g>
<g opacity="0.8" clip-path="url(#clip1)">
<g filter="url(#filter1_b)">
<path d="M1460.52 69.0755C1448.54 74.3288 1438.34 82.9422 1431.15 93.8745C1423.96 104.807 1420.09 117.59 1420 130.678V136.825V246.134C1420 246.134 1472.27 228.428 1475.48 227.058C1487.45 221.798 1497.65 213.183 1504.84 202.252C1512.03 191.321 1515.9 178.542 1516 165.455V162.983V50C1516 50 1463.69 67.7058 1460.52 69.0755Z" fill="url(#paint3_linear)" fill-opacity="0.6"/>
<path d="M1460.52 69.0755C1448.54 74.3288 1438.34 82.9422 1431.15 93.8745C1423.96 104.807 1420.09 117.59 1420 130.678V136.825V246.134C1420 246.134 1472.27 228.428 1475.48 227.058C1487.45 221.798 1497.65 213.183 1504.84 202.252C1512.03 191.321 1515.9 178.542 1516 165.455V162.983V50C1516 50 1463.69 67.7058 1460.52 69.0755Z" fill="#60AAFB" fill-opacity="0.2"/>
<path d="M1513.91 51.237L1515.5 50.6972V162.983V165.454C1515.4 178.443 1511.56 191.128 1504.42 201.977C1497.28 212.827 1487.16 221.378 1475.28 226.599C1473.69 227.277 1459.86 232.034 1446.38 236.636C1439.64 238.935 1433.01 241.191 1428.06 242.872C1425.58 243.713 1423.53 244.41 1422.09 244.897L1420.5 245.436V136.825V130.68C1420.59 117.689 1424.43 105 1431.57 94.1493C1438.71 83.2981 1448.83 74.7485 1460.72 69.534C1462.29 68.8574 1476.12 64.1003 1489.61 59.4973C1496.35 57.1986 1502.98 54.9427 1507.94 53.2614C1510.41 52.4208 1512.47 51.7238 1513.91 51.237Z" stroke="url(#paint4_linear)" stroke-opacity="0.6"/>
<path d="M1513.91 51.237L1515.5 50.6972V162.983V165.454C1515.4 178.443 1511.56 191.128 1504.42 201.977C1497.28 212.827 1487.16 221.378 1475.28 226.599C1473.69 227.277 1459.86 232.034 1446.38 236.636C1439.64 238.935 1433.01 241.191 1428.06 242.872C1425.58 243.713 1423.53 244.41 1422.09 244.897L1420.5 245.436V136.825V130.68C1420.59 117.689 1424.43 105 1431.57 94.1493C1438.71 83.2981 1448.83 74.7485 1460.72 69.534C1462.29 68.8574 1476.12 64.1003 1489.61 59.4973C1496.35 57.1986 1502.98 54.9427 1507.94 53.2614C1510.41 52.4208 1512.47 51.7238 1513.91 51.237Z" stroke="url(#paint5_linear)"/>
</g>
</g>
<g opacity="0.8" clip-path="url(#clip2)">
<g filter="url(#filter2_b)">
<path d="M1508.37 10.511C1501.76 13.4057 1496.13 18.1518 1492.16 24.1758C1488.19 30.1997 1486.05 37.2434 1486 44.4554V47.8425V108.074C1486 108.074 1514.86 98.3174 1516.63 97.5626C1523.24 94.6642 1528.87 89.9171 1532.84 83.894C1536.81 77.8709 1538.95 70.8292 1539 63.6182V62.256V0C1539 0 1510.12 9.75626 1508.37 10.511Z" fill="url(#paint6_linear)" fill-opacity="0.6"/>
<path d="M1508.37 10.511C1501.76 13.4057 1496.13 18.1518 1492.16 24.1758C1488.19 30.1997 1486.05 37.2434 1486 44.4554V47.8425V108.074C1486 108.074 1514.86 98.3174 1516.63 97.5626C1523.24 94.6642 1528.87 89.9171 1532.84 83.894C1536.81 77.8709 1538.95 70.8292 1539 63.6182V62.256V0C1539 0 1510.12 9.75626 1508.37 10.511Z" fill="#60AAFB" fill-opacity="0.2"/>
<path d="M1537.92 0.894326L1538.5 0.696835V62.256V63.6161C1538.45 70.7299 1536.34 77.6768 1532.42 83.6188C1528.5 89.5606 1522.95 94.2439 1516.43 97.1037C1515.56 97.475 1507.94 100.09 1500.49 102.628C1496.77 103.894 1493.11 105.137 1490.38 106.064C1489.01 106.527 1487.88 106.911 1487.08 107.179L1486.5 107.377V47.8425V44.4571C1486.55 37.3424 1488.66 30.3937 1492.57 24.4509C1496.49 18.5081 1502.05 13.8256 1508.57 10.9696C1509.43 10.6005 1517.05 7.98451 1524.5 5.44577C1528.22 4.17919 1531.89 2.93616 1534.62 2.00977C1535.99 1.54658 1537.12 1.16255 1537.92 0.894326Z" stroke="url(#paint7_linear)" stroke-opacity="0.6"/>
<path d="M1537.92 0.894326L1538.5 0.696835V62.256V63.6161C1538.45 70.7299 1536.34 77.6768 1532.42 83.6188C1528.5 89.5606 1522.95 94.2439 1516.43 97.1037C1515.56 97.475 1507.94 100.09 1500.49 102.628C1496.77 103.894 1493.11 105.137 1490.38 106.064C1489.01 106.527 1487.88 106.911 1487.08 107.179L1486.5 107.377V47.8425V44.4571C1486.55 37.3424 1488.66 30.3937 1492.57 24.4509C1496.49 18.5081 1502.05 13.8256 1508.57 10.9696C1509.43 10.6005 1517.05 7.98451 1524.5 5.44577C1528.22 4.17919 1531.89 2.93616 1534.62 2.00977C1535.99 1.54658 1537.12 1.16255 1537.92 0.894326Z" stroke="url(#paint8_linear)"/>
</g>
</g>
<g opacity="0.8" clip-path="url(#clip3)">
<g filter="url(#filter3_b)">
<path d="M1606.71 134.477C1603.84 135.71 1601.39 137.731 1599.67 140.297C1597.95 142.863 1597.02 145.863 1597 148.935V150.377V176.031C1597 176.031 1609.52 171.876 1610.29 171.554C1613.16 170.32 1615.6 168.298 1617.33 165.733C1619.05 163.167 1619.98 160.168 1620 157.097V156.516V130C1620 130 1607.47 134.155 1606.71 134.477Z" fill="url(#paint9_linear)" fill-opacity="0.6"/>
<path d="M1606.71 134.477C1603.84 135.71 1601.39 137.731 1599.67 140.297C1597.95 142.863 1597.02 145.863 1597 148.935V150.377V176.031C1597 176.031 1609.52 171.876 1610.29 171.554C1613.16 170.32 1615.6 168.298 1617.33 165.733C1619.05 163.167 1619.98 160.168 1620 157.097V156.516V130C1620 130 1607.47 134.155 1606.71 134.477Z" fill="#60AAFB" fill-opacity="0.2"/>
<path d="M1618.19 131.129C1618.72 130.953 1619.16 130.804 1619.5 130.693V156.516V157.095C1619.48 160.067 1618.58 162.97 1616.91 165.454C1615.24 167.938 1612.88 169.897 1610.1 171.094C1609.72 171.249 1606.44 172.356 1603.2 173.439C1601.59 173.979 1600 174.508 1598.81 174.903C1598.28 175.078 1597.83 175.227 1597.5 175.338V150.377V148.936C1597.52 145.964 1598.42 143.06 1600.09 140.576C1601.76 138.091 1604.12 136.132 1606.9 134.937C1607.27 134.784 1610.55 133.676 1613.8 132.592C1615.41 132.053 1617 131.523 1618.19 131.129Z" stroke="url(#paint10_linear)" stroke-opacity="0.6"/>
<path d="M1618.19 131.129C1618.72 130.953 1619.16 130.804 1619.5 130.693V156.516V157.095C1619.48 160.067 1618.58 162.97 1616.91 165.454C1615.24 167.938 1612.88 169.897 1610.1 171.094C1609.72 171.249 1606.44 172.356 1603.2 173.439C1601.59 173.979 1600 174.508 1598.81 174.903C1598.28 175.078 1597.83 175.227 1597.5 175.338V150.377V148.936C1597.52 145.964 1598.42 143.06 1600.09 140.576C1601.76 138.091 1604.12 136.132 1606.9 134.937C1607.27 134.784 1610.55 133.676 1613.8 132.592C1615.41 132.053 1617 131.523 1618.19 131.129Z" stroke="url(#paint11_linear)"/>
</g>
</g>
<g opacity="0.8" clip-path="url(#clip4)">
<g filter="url(#filter4_b)">
<path d="M108.999 134C108.999 134 69.7702 147.24 67.3919 148.289C58.3887 152.226 50.7244 158.686 45.3294 166.885C39.9345 175.084 37.0411 184.669 37 194.478V299.146V358C37 358 76.1291 344.76 78.6325 343.711C87.6087 339.78 95.2537 333.341 100.646 325.173C106.039 317.004 108.948 307.453 109.024 297.672V238.368L108.999 134Z" fill="url(#paint12_linear)" fill-opacity="0.6"/>
<path d="M108.999 134C108.999 134 69.7702 147.24 67.3919 148.289C58.3887 152.226 50.7244 158.686 45.3294 166.885C39.9345 175.084 37.0411 184.669 37 194.478V299.146V358C37 358 76.1291 344.76 78.6325 343.711C87.6087 339.78 95.2537 333.341 100.646 325.173C106.039 317.004 108.948 307.453 109.024 297.672V238.368L108.999 134Z" fill="#60AAFB" fill-opacity="0.2"/>
<path d="M38.5258 356.956L37.5 357.303V299.146V194.479C37.5409 184.768 40.4056 175.277 45.7471 167.16C51.0889 159.041 58.6776 152.645 67.5923 148.747L67.5938 148.746C68.1638 148.495 71.032 147.48 75.06 146.086C79.071 144.698 84.1967 142.945 89.2487 141.224C94.3006 139.504 99.2783 137.816 102.993 136.559C104.85 135.93 106.392 135.409 107.469 135.045L108.5 134.697L108.524 238.368V238.369V297.67C108.449 307.354 105.568 316.81 100.229 324.897C94.8903 332.984 87.3219 339.358 78.4355 343.252C77.1875 343.773 66.8177 347.333 56.7161 350.776C51.6689 352.496 46.6997 354.184 42.9924 355.441C41.1388 356.07 39.6006 356.591 38.5258 356.956Z" stroke="url(#paint13_linear)" stroke-opacity="0.6"/>
<path d="M38.5258 356.956L37.5 357.303V299.146V194.479C37.5409 184.768 40.4056 175.277 45.7471 167.16C51.0889 159.041 58.6776 152.645 67.5923 148.747L67.5938 148.746C68.1638 148.495 71.032 147.48 75.06 146.086C79.071 144.698 84.1967 142.945 89.2487 141.224C94.3006 139.504 99.2783 137.816 102.993 136.559C104.85 135.93 106.392 135.409 107.469 135.045L108.5 134.697L108.524 238.368V238.369V297.67C108.449 307.354 105.568 316.81 100.229 324.897C94.8903 332.984 87.3219 339.358 78.4355 343.252C77.1875 343.773 66.8177 347.333 56.7161 350.776C51.6689 352.496 46.6997 354.184 42.9924 355.441C41.1388 356.07 39.6006 356.591 38.5258 356.956Z" stroke="url(#paint14_linear)"/>
</g>
</g>
<g opacity="0.8" clip-path="url(#clip5)">
<g filter="url(#filter5_b)">
<path d="M30.8141 92.5013C21.7055 96.4948 13.9483 103.043 8.47983 111.354C3.01139 119.664 0.0661404 129.382 0 139.332V144.005V227.102C0 227.102 39.7486 213.642 42.1853 212.6C51.2901 208.601 59.0438 202.052 64.5115 193.743C69.9792 185.433 72.9269 175.718 72.9994 165.77V163.89V78C72.9994 78 33.2254 91.46 30.8141 92.5013Z" fill="url(#paint15_linear)" fill-opacity="0.6"/>
<path d="M30.8141 92.5013C21.7055 96.4948 13.9483 103.043 8.47983 111.354C3.01139 119.664 0.0661404 129.382 0 139.332V144.005V227.102C0 227.102 39.7486 213.642 42.1853 212.6C51.2901 208.601 59.0438 202.052 64.5115 193.743C69.9792 185.433 72.9269 175.718 72.9994 165.77V163.89V78C72.9994 78 33.2254 91.46 30.8141 92.5013Z" fill="#60AAFB" fill-opacity="0.2"/>
<path d="M71.4461 79.054L72.4994 78.6972V163.89V165.768C72.4272 175.619 69.5081 185.239 64.0938 193.468C58.6796 201.696 51.0017 208.182 41.9862 212.142C40.7776 212.657 30.2698 216.269 20.0174 219.768C14.8969 221.516 9.85241 223.231 6.08805 224.509C4.20588 225.148 2.64375 225.678 1.55217 226.048L0.5 226.404V144.005V139.334C0.565815 129.481 3.48247 119.858 8.89752 111.628C14.3126 103.399 21.994 96.9146 31.0135 92.9598C32.2013 92.4475 42.7117 88.8339 52.9724 85.3334C58.0945 83.5859 63.1414 81.871 66.9077 80.5929C68.7909 79.9538 70.3539 79.424 71.4461 79.054Z" stroke="url(#paint16_linear)" stroke-opacity="0.6"/>
<path d="M71.4461 79.054L72.4994 78.6972V163.89V165.768C72.4272 175.619 69.5081 185.239 64.0938 193.468C58.6796 201.696 51.0017 208.182 41.9862 212.142C40.7776 212.657 30.2698 216.269 20.0174 219.768C14.8969 221.516 9.85241 223.231 6.08805 224.509C4.20588 225.148 2.64375 225.678 1.55217 226.048L0.5 226.404V144.005V139.334C0.565815 129.481 3.48247 119.858 8.89752 111.628C14.3126 103.399 21.994 96.9146 31.0135 92.9598C32.2013 92.4475 42.7117 88.8339 52.9724 85.3334C58.0945 83.5859 63.1414 81.871 66.9077 80.5929C68.7909 79.9538 70.3539 79.424 71.4461 79.054Z" stroke="url(#paint17_linear)"/>
</g>
</g>
<g opacity="0.8" clip-path="url(#clip6)">
<g filter="url(#filter6_b)">
<path d="M129.819 8.54747C126.325 10.0752 123.35 12.5801 121.253 15.7594C119.155 18.9387 118.025 22.6562 118 26.4626V28.2502V60.0389C118 60.0389 133.246 54.8897 134.181 54.4914C137.673 52.9616 140.647 50.4562 142.744 47.2774C144.841 44.0985 145.972 40.3821 146 36.5763V35.8573V3C146 3 130.744 8.14914 129.819 8.54747Z" fill="url(#paint18_linear)" fill-opacity="0.6"/>
<path d="M129.819 8.54747C126.325 10.0752 123.35 12.5801 121.253 15.7594C119.155 18.9387 118.025 22.6562 118 26.4626V28.2502V60.0389C118 60.0389 133.246 54.8897 134.181 54.4914C137.673 52.9616 140.647 50.4562 142.744 47.2774C144.841 44.0985 145.972 40.3821 146 36.5763V35.8573V3C146 3 130.744 8.14914 129.819 8.54747Z" fill="#60AAFB" fill-opacity="0.2"/>
<path d="M143.762 4.28439C144.483 4.04047 145.081 3.83815 145.5 3.69664V35.8573V36.5744C145.472 40.2829 144.37 43.9043 142.327 47.002C140.283 50.0995 137.385 52.5412 133.982 54.0323C133.527 54.2253 129.519 55.6 125.579 56.9412C123.615 57.6096 121.68 58.2656 120.236 58.7545C119.516 58.9983 118.918 59.2006 118.5 59.3421V28.2502V26.4643C118.525 22.7553 119.626 19.1329 121.67 16.0348C123.714 12.9366 126.613 10.4953 130.018 9.00617C130.463 8.81533 134.472 7.44014 138.417 6.09771C140.382 5.42929 142.317 4.77329 143.762 4.28439Z" stroke="url(#paint19_linear)" stroke-opacity="0.6"/>
<path d="M143.762 4.28439C144.483 4.04047 145.081 3.83815 145.5 3.69664V35.8573V36.5744C145.472 40.2829 144.37 43.9043 142.327 47.002C140.283 50.0995 137.385 52.5412 133.982 54.0323C133.527 54.2253 129.519 55.6 125.579 56.9412C123.615 57.6096 121.68 58.2656 120.236 58.7545C119.516 58.9983 118.918 59.2006 118.5 59.3421V28.2502V26.4643C118.525 22.7553 119.626 19.1329 121.67 16.0348C123.714 12.9366 126.613 10.4953 130.018 9.00617C130.463 8.81533 134.472 7.44014 138.417 6.09771C140.382 5.42929 142.317 4.77329 143.762 4.28439Z" stroke="url(#paint20_linear)"/>
</g>
</g>
<defs>
<filter id="filter0_b" x="1505" y="216" width="100.016" height="203" filterUnits="userSpaceOnUse" color-interpolation-filters="sRGB">
<feFlood flood-opacity="0" result="BackgroundImageFix"/>
<feGaussianBlur in="BackgroundImage" stdDeviation="13"/>
<feComposite in2="SourceAlpha" operator="in" result="effect1_backgroundBlur"/>
<feBlend mode="normal" in="SourceGraphic" in2="effect1_backgroundBlur" result="shape"/>
</filter>
<filter id="filter1_b" x="1394" y="24" width="147.999" height="248.134" filterUnits="userSpaceOnUse" color-interpolation-filters="sRGB">
<feFlood flood-opacity="0" result="BackgroundImageFix"/>
<feGaussianBlur in="BackgroundImage" stdDeviation="13"/>
<feComposite in2="SourceAlpha" operator="in" result="effect1_backgroundBlur"/>
<feBlend mode="normal" in="SourceGraphic" in2="effect1_backgroundBlur" result="shape"/>
</filter>
<filter id="filter2_b" x="1460" y="-26" width="105" height="160.074" filterUnits="userSpaceOnUse" color-interpolation-filters="sRGB">
<feFlood flood-opacity="0" result="BackgroundImageFix"/>
<feGaussianBlur in="BackgroundImage" stdDeviation="13"/>
<feComposite in2="SourceAlpha" operator="in" result="effect1_backgroundBlur"/>
<feBlend mode="normal" in="SourceGraphic" in2="effect1_backgroundBlur" result="shape"/>
</filter>
<filter id="filter3_b" x="1571" y="104" width="75" height="98.0312" filterUnits="userSpaceOnUse" color-interpolation-filters="sRGB">
<feFlood flood-opacity="0" result="BackgroundImageFix"/>
<feGaussianBlur in="BackgroundImage" stdDeviation="13"/>
<feComposite in2="SourceAlpha" operator="in" result="effect1_backgroundBlur"/>
<feBlend mode="normal" in="SourceGraphic" in2="effect1_backgroundBlur" result="shape"/>
</filter>
<filter id="filter4_b" x="11" y="108" width="124.024" height="276" filterUnits="userSpaceOnUse" color-interpolation-filters="sRGB">
<feFlood flood-opacity="0" result="BackgroundImageFix"/>
<feGaussianBlur in="BackgroundImage" stdDeviation="13"/>
<feComposite in2="SourceAlpha" operator="in" result="effect1_backgroundBlur"/>
<feBlend mode="normal" in="SourceGraphic" in2="effect1_backgroundBlur" result="shape"/>
</filter>
<filter id="filter5_b" x="-26" y="52" width="125" height="201.102" filterUnits="userSpaceOnUse" color-interpolation-filters="sRGB">
<feFlood flood-opacity="0" result="BackgroundImageFix"/>
<feGaussianBlur in="BackgroundImage" stdDeviation="13"/>
<feComposite in2="SourceAlpha" operator="in" result="effect1_backgroundBlur"/>
<feBlend mode="normal" in="SourceGraphic" in2="effect1_backgroundBlur" result="shape"/>
</filter>
<filter id="filter6_b" x="92" y="-23" width="80" height="109.039" filterUnits="userSpaceOnUse" color-interpolation-filters="sRGB">
<feFlood flood-opacity="0" result="BackgroundImageFix"/>
<feGaussianBlur in="BackgroundImage" stdDeviation="13"/>
<feComposite in2="SourceAlpha" operator="in" result="effect1_backgroundBlur"/>
<feBlend mode="normal" in="SourceGraphic" in2="effect1_backgroundBlur" result="shape"/>
</filter>
<linearGradient id="paint0_linear" x1="1555.01" y1="242" x2="1611.52" y2="255.347" gradientUnits="userSpaceOnUse">
<stop stop-color="white" stop-opacity="0.2"/>
<stop offset="1" stop-color="white" stop-opacity="0"/>
</linearGradient>
<linearGradient id="paint1_linear" x1="1588.22" y1="302.365" x2="1571.81" y2="302.53" gradientUnits="userSpaceOnUse">
<stop stop-color="white"/>
<stop offset="1" stop-color="#EFEFEF" stop-opacity="0"/>
</linearGradient>
<linearGradient id="paint2_linear" x1="1531" y1="242" x2="1555.23" y2="246.095" gradientUnits="userSpaceOnUse">
<stop stop-color="white" stop-opacity="0.5"/>
<stop offset="1" stop-color="white" stop-opacity="0"/>
</linearGradient>
<linearGradient id="paint3_linear" x1="1468" y1="50" x2="1573.37" y2="88.3037" gradientUnits="userSpaceOnUse">
<stop stop-color="white" stop-opacity="0.2"/>
<stop offset="1" stop-color="white" stop-opacity="0"/>
</linearGradient>
<linearGradient id="paint4_linear" x1="1534.41" y1="128.408" x2="1501.6" y2="128.917" gradientUnits="userSpaceOnUse">
<stop stop-color="white"/>
<stop offset="1" stop-color="#EFEFEF" stop-opacity="0"/>
</linearGradient>
<linearGradient id="paint5_linear" x1="1420" y1="50" x2="1466.67" y2="62.1412" gradientUnits="userSpaceOnUse">
<stop stop-color="white" stop-opacity="0.5"/>
<stop offset="1" stop-color="white" stop-opacity="0"/>
</linearGradient>
<linearGradient id="paint6_linear" x1="1512.5" y1="0" x2="1570.65" y2="21.1781" gradientUnits="userSpaceOnUse">
<stop stop-color="white" stop-opacity="0.2"/>
<stop offset="1" stop-color="white" stop-opacity="0"/>
</linearGradient>
<linearGradient id="paint7_linear" x1="1549.16" y1="43.2043" x2="1531.05" y2="43.4862" gradientUnits="userSpaceOnUse">
<stop stop-color="white"/>
<stop offset="1" stop-color="#EFEFEF" stop-opacity="0"/>
</linearGradient>
<linearGradient id="paint8_linear" x1="1486" y1="0" x2="1511.76" y2="6.71423" gradientUnits="userSpaceOnUse">
<stop stop-color="white" stop-opacity="0.5"/>
<stop offset="1" stop-color="white" stop-opacity="0"/>
</linearGradient>
<linearGradient id="paint9_linear" x1="1608.5" y1="130" x2="1633.62" y2="139.322" gradientUnits="userSpaceOnUse">
<stop stop-color="white" stop-opacity="0.2"/>
<stop offset="1" stop-color="white" stop-opacity="0"/>
</linearGradient>
<linearGradient id="paint10_linear" x1="1624.41" y1="148.402" x2="1616.55" y2="148.526" gradientUnits="userSpaceOnUse">
<stop stop-color="white"/>
<stop offset="1" stop-color="#EFEFEF" stop-opacity="0"/>
</linearGradient>
<linearGradient id="paint11_linear" x1="1597" y1="130" x2="1608.15" y2="132.962" gradientUnits="userSpaceOnUse">
<stop stop-color="white" stop-opacity="0.5"/>
<stop offset="1" stop-color="white" stop-opacity="0"/>
</linearGradient>
<linearGradient id="paint12_linear" x1="73.0122" y1="134" x2="157.687" y2="154.22" gradientUnits="userSpaceOnUse">
<stop stop-color="white" stop-opacity="0.2"/>
<stop offset="1" stop-color="white" stop-opacity="0"/>
</linearGradient>
<linearGradient id="paint13_linear" x1="122.836" y1="223.548" x2="98.2181" y2="223.799" gradientUnits="userSpaceOnUse">
<stop stop-color="white"/>
<stop offset="1" stop-color="#EFEFEF" stop-opacity="0"/>
</linearGradient>
<linearGradient id="paint14_linear" x1="37" y1="134" x2="73.3206" y2="140.208" gradientUnits="userSpaceOnUse">
<stop stop-color="white" stop-opacity="0.5"/>
<stop offset="1" stop-color="white" stop-opacity="0"/>
</linearGradient>
<linearGradient id="paint15_linear" x1="36.4997" y1="78" x2="116.621" y2="107.133" gradientUnits="userSpaceOnUse">
<stop stop-color="white" stop-opacity="0.2"/>
<stop offset="1" stop-color="white" stop-opacity="0"/>
</linearGradient>
<linearGradient id="paint16_linear" x1="86.9979" y1="137.606" x2="62.0502" y2="137.994" gradientUnits="userSpaceOnUse">
<stop stop-color="white"/>
<stop offset="1" stop-color="#EFEFEF" stop-opacity="0"/>
</linearGradient>
<linearGradient id="paint17_linear" x1="0" y1="78" x2="35.4843" y2="87.2346" gradientUnits="userSpaceOnUse">
<stop stop-color="white" stop-opacity="0.5"/>
<stop offset="1" stop-color="white" stop-opacity="0"/>
</linearGradient>
<linearGradient id="paint18_linear" x1="132" y1="3" x2="162.712" y2="14.1969" gradientUnits="userSpaceOnUse">
<stop stop-color="white" stop-opacity="0.2"/>
<stop offset="1" stop-color="white" stop-opacity="0"/>
</linearGradient>
<linearGradient id="paint19_linear" x1="151.369" y1="25.8023" x2="141.8" y2="25.9513" gradientUnits="userSpaceOnUse">
<stop stop-color="white"/>
<stop offset="1" stop-color="#EFEFEF" stop-opacity="0"/>
</linearGradient>
<linearGradient id="paint20_linear" x1="118" y1="3" x2="131.606" y2="6.55021" gradientUnits="userSpaceOnUse">
<stop stop-color="white" stop-opacity="0.5"/>
<stop offset="1" stop-color="white" stop-opacity="0"/>
</linearGradient>
<clipPath id="clip0">
<rect width="48" height="151" fill="white" transform="translate(1531 242)"/>
</clipPath>
<clipPath id="clip1">
<rect width="96" height="196" fill="white" transform="translate(1420 50)"/>
</clipPath>
<clipPath id="clip2">
<rect width="53" height="108" fill="white" transform="translate(1486)"/>
</clipPath>
<clipPath id="clip3">
<rect width="23" height="46" fill="white" transform="translate(1597 130)"/>
</clipPath>
<clipPath id="clip4">
<rect width="72" height="224" fill="white" transform="translate(37 134)"/>
</clipPath>
<clipPath id="clip5">
<rect width="73" height="149" fill="white" transform="translate(0 78)"/>
</clipPath>
<clipPath id="clip6">
<rect width="28" height="57" fill="white" transform="translate(118 3)"/>
</clipPath>
</defs>
</svg>
