<svg width="15" height="15" viewBox="0 0 15 15" fill="none" xmlns="http://www.w3.org/2000/svg">
<g clip-path="url(#clip0_15_19)">
<path d="M14.572 10.5998L11.2907 9.19358C11.1506 9.13384 10.9948 9.12126 10.8468 9.15771C10.6989 9.19417 10.5668 9.2777 10.4704 9.39573L9.01729 11.1711C6.73674 10.0959 4.90143 8.26055 3.82617 5.98001L5.60156 4.52688C5.71983 4.4307 5.80353 4.29859 5.84001 4.15058C5.87648 4.00256 5.86374 3.8467 5.80371 3.70657L4.39746 0.42532C4.33158 0.274268 4.21505 0.150939 4.06797 0.0765992C3.9209 0.00225932 3.75249 -0.0184318 3.5918 0.0180937L0.544922 0.721219C0.389991 0.756996 0.251761 0.84423 0.152793 0.968685C0.0538257 1.09314 -3.56897e-05 1.24746 1.77428e-08 1.40647C1.77428e-08 8.92112 6.09082 15.0002 13.5938 15.0002C13.7528 15.0003 13.9072 14.9465 14.0317 14.8475C14.1562 14.7485 14.2435 14.6103 14.2793 14.4553L14.9824 11.4084C15.0187 11.2469 14.9976 11.0779 14.9227 10.9303C14.8478 10.7827 14.7237 10.6659 14.572 10.5998Z" fill="#6E9BB8"/>
</g>
<defs>
<clipPath id="clip0_15_19">
<rect width="15" height="15" fill="white"/>
</clipPath>
</defs>
</svg>
